<svg xmlns="http://www.w3.org/2000/svg" viewBox="0 0 1200 750"><defs><linearGradient id="bg" x1="0" y1="0" x2="1" y2="1"><stop stop-color="#fff9f8"/><stop offset=".52" stop-color="#fff0ee"/><stop offset="1" stop-color="#eef4f7"/></linearGradient><linearGradient id="navy" x1="0" y1="0" x2="1" y2="1"><stop stop-color="#225f91"/><stop offset=".55" stop-color="#123c61"/><stop offset="1" stop-color="#071c30"/></linearGradient><linearGradient id="gold" x1="0" y1="0" x2="1" y2="1"><stop stop-color="#fff1ad"/><stop offset=".5" stop-color="#e3b84b"/><stop offset="1" stop-color="#9d6b18"/></linearGradient><linearGradient id="red" x1="0" y1="0" x2="1" y2="1"><stop stop-color="#e7736d"/><stop offset=".55" stop-color="#bd4641"/><stop offset="1" stop-color="#7d2925"/></linearGradient><filter id="sh" x="-30%" y="-30%" width="160%" height="180%"><feDropShadow dx="0" dy="24" stdDeviation="24" flood-color="#17394f" flood-opacity=".2"/></filter><filter id="grain"><feTurbulence type="fractalNoise" baseFrequency=".75" numOctaves="2" seed="32"/><feColorMatrix values="1 0 0 0 0 0 1 0 0 0 0 0 1 0 0 0 0 0 .045 0"/></filter></defs><rect width="1200" height="750" rx="54" fill="url(#bg)"/><g filter="url(#sh)" transform="translate(250 100)"><path d="M350 45 80 235v330h540V235z" fill="#fff" stroke="#d8e3e8" stroke-width="12"/><path d="M350 45v-5M350 0v92M310 35h80" stroke="url(#gold)" stroke-width="16" stroke-linecap="round"/><path d="M260 565V370a90 90 0 0 1 180 0v195" fill="#6b513e"/><g transform="translate(390 300) rotate(7 170 105)"><rect width="340" height="210" rx="32" fill="url(#red)"/><circle cx="170" cy="105" r="65" fill="#fff"/><path d="M128 63l84 84M212 63l-84 84" stroke="#b43e39" stroke-width="21" stroke-linecap="round"/></g></g><rect width="1200" height="750" rx="54" filter="url(#grain)" opacity=".5"/></svg>