<svg xmlns="http://www.w3.org/2000/svg" viewBox="0 0 1200 750" role="img"><defs>
    <linearGradient id="bg" x1="0" y1="0" x2="1" y2="1"><stop stop-color="#f8fbfd"/><stop offset=".52" stop-color="#eaf7ff"/><stop offset="1" stop-color="#eef3f5"/></linearGradient>
    <linearGradient id="navy" x1="0" y1="0" x2="1" y2="1"><stop stop-color="#1f4d78"/><stop offset=".55" stop-color="#0d2e4c"/><stop offset="1" stop-color="#071b2e"/></linearGradient>
    <linearGradient id="gold" x1="0" y1="0" x2="1" y2="1"><stop stop-color="#fff0a6"/><stop offset=".45" stop-color="#e6b84b"/><stop offset="1" stop-color="#9f6b16"/></linearGradient>
    <linearGradient id="steel" x1="0" y1="0" x2="1" y2="1"><stop stop-color="#53616e"/><stop offset=".48" stop-color="#1f2932"/><stop offset="1" stop-color="#080d12"/></linearGradient>
    <linearGradient id="blue" x1="0" y1="0" x2="1" y2="1"><stop stop-color="#67c3f5"/><stop offset=".5" stop-color="#2877b7"/><stop offset="1" stop-color="#12466f"/></linearGradient>
    <radialGradient id="lens" cx=".38" cy=".32" r=".72"><stop stop-color="#9ef4ff"/><stop offset=".18" stop-color="#4db5e5"/><stop offset=".48" stop-color="#254d7b"/><stop offset=".78" stop-color="#152538"/><stop offset="1" stop-color="#060b11"/></radialGradient>
    <filter id="shadow" x="-30%" y="-30%" width="160%" height="180%"><feDropShadow dx="0" dy="24" stdDeviation="24" flood-color="#0c2f4e" flood-opacity=".24"/></filter>
    <filter id="soft"><feGaussianBlur stdDeviation="18"/></filter>
    <filter id="grain" x="-20%" y="-20%" width="140%" height="140%"><feTurbulence type="fractalNoise" baseFrequency=".72" numOctaves="2" seed="13"/><feColorMatrix values="1 0 0 0 0 0 1 0 0 0 0 0 1 0 0 0 0 0 .055 0"/></filter>
  </defs><rect width="1200" height="750" rx="54" fill="url(#bg)"/>
  <circle cx="1040" cy="120" r="210" fill="#fff" opacity=".58" filter="url(#soft)"/>
  <circle cx="170" cy="650" r="190" fill="#b7d9ee" opacity=".20" filter="url(#soft)"/>
  <rect width="1200" height="750" rx="54" filter="url(#grain)" opacity=".65"/><g filter="url(#shadow)" transform="translate(160 145)">
      <path d="M35 275c0-145 112-262 250-262s250 117 250 262" fill="none" stroke="url(#blue)" stroke-width="34" stroke-linecap="round"/>
      <rect x="0" y="250" width="90" height="180" rx="38" fill="#1c6da8"/><rect x="480" y="250" width="90" height="180" rx="38" fill="#1c6da8"/>
      <g transform="translate(575 60)"><rect x="105" y="62" width="145" height="360" rx="48" fill="#f9fbfc" stroke="#bbc9d4" stroke-width="12"/><rect x="135" y="18" width="85" height="95" rx="22" fill="#e6b84b"/><path d="M80 165h196M80 255h196M80 345h196" stroke="#78accb" stroke-width="22" stroke-linecap="round"/></g>
    </g></svg>