<svg xmlns="http://www.w3.org/2000/svg" viewBox="0 0 1200 750"><defs><linearGradient id="bg" x1="0" y1="0" x2="1" y2="1"><stop stop-color="#fff7eb"/><stop offset=".52" stop-color="#f4e6d8"/><stop offset="1" stop-color="#241b28"/></linearGradient><linearGradient id="navy" x1="0" y1="0" x2="1" y2="1"><stop stop-color="#225f91"/><stop offset=".55" stop-color="#123c61"/><stop offset="1" stop-color="#071c30"/></linearGradient><linearGradient id="gold" x1="0" y1="0" x2="1" y2="1"><stop stop-color="#fff1ad"/><stop offset=".5" stop-color="#e3b84b"/><stop offset="1" stop-color="#9d6b18"/></linearGradient><filter id="sh" x="-30%" y="-30%" width="160%" height="180%"><feDropShadow dx="0" dy="24" stdDeviation="24" flood-color="#17394f" flood-opacity=".2"/></filter><filter id="grain"><feTurbulence type="fractalNoise" baseFrequency=".75" numOctaves="2" seed="111"/><feColorMatrix values="1 0 0 0 0 0 1 0 0 0 0 0 1 0 0 0 0 0 .045 0"/></filter></defs><rect width="1200" height="750" rx="54" fill="url(#bg)"/><g filter="url(#sh)" transform="translate(280 105)"><ellipse cx="320" cy="355" rx="275" ry="220" fill="#e7802f"/><ellipse cx="220" cy="355" rx="150" ry="205" fill="#f19035"/><ellipse cx="420" cy="355" rx="150" ry="205" fill="#cf6c24"/><path d="M300 145c-30-80 40-115 95-105 0 75-35 115-75 145" fill="#487d49"/><path d="m178 315 98-45-15 92zM365 270l100 48-85 45zM235 430c90 54 175 48 245-8-40 104-185 122-245 8Z" fill="#332316"/></g><rect width="1200" height="750" rx="54" filter="url(#grain)" opacity=".5"/></svg>