<svg xmlns="http://www.w3.org/2000/svg" viewBox="0 0 1200 750"><defs><linearGradient id="bg" x1="0" y1="0" x2="1" y2="1"><stop stop-color="#f9fbfd"/><stop offset=".52" stop-color="#eef6fb"/><stop offset="1" stop-color="#fff7e8"/></linearGradient><linearGradient id="navy" x1="0" y1="0" x2="1" y2="1"><stop stop-color="#225f91"/><stop offset=".55" stop-color="#123c61"/><stop offset="1" stop-color="#071c30"/></linearGradient><linearGradient id="gold" x1="0" y1="0" x2="1" y2="1"><stop stop-color="#fff1ad"/><stop offset=".5" stop-color="#e3b84b"/><stop offset="1" stop-color="#9d6b18"/></linearGradient><linearGradient id="red" x1="0" y1="0" x2="1" y2="1"><stop stop-color="#e7736d"/><stop offset=".55" stop-color="#bd4641"/><stop offset="1" stop-color="#7d2925"/></linearGradient><filter id="sh" x="-30%" y="-30%" width="160%" height="180%"><feDropShadow dx="0" dy="24" stdDeviation="24" flood-color="#17394f" flood-opacity=".2"/></filter><filter id="grain"><feTurbulence type="fractalNoise" baseFrequency=".75" numOctaves="2" seed="211"/><feColorMatrix values="1 0 0 0 0 0 1 0 0 0 0 0 1 0 0 0 0 0 .045 0"/></filter></defs><rect width="1200" height="750" rx="54" fill="url(#bg)"/><g filter="url(#sh)" transform="translate(170 95)"><path d="M95 480V190l275-145 275 145v290Z" fill="#f8fbfc" stroke="#cfdae0" stroke-width="12"/><path d="M95 190 370 45l275 145" fill="none" stroke="#cfdae0" stroke-width="12"/><path d="M300 480V330a70 70 0 0 1 140 0v150" fill="#76543c"/><path d="M155 245h90M495 245h90" stroke="#79a7c2" stroke-width="48" stroke-linecap="round"/><g transform="translate(690 210)"><circle cx="125" cy="125" r="105" fill="#f2c756"/><g stroke="#e6af35" stroke-width="18" stroke-linecap="round"><path d="M125-25v45M125 230v45M-25 125h45M230 125h45M20 20l32 32M198 198l32 32M230 20l-32 32M52 198l-32 32"/></g></g><g transform="translate(0 440)"><rect width="190" height="145" rx="30" fill="url(#navy)"/><path d="M45 0v-55h100V0" fill="#346d99"/></g></g><rect width="1200" height="750" rx="54" filter="url(#grain)" opacity=".5"/></svg>