<svg xmlns="http://www.w3.org/2000/svg" viewBox="0 0 1200 750"><defs><linearGradient id="bg" x1="0" y1="0" x2="1" y2="1"><stop stop-color="#f8fbfd"/><stop offset=".52" stop-color="#eef6fb"/><stop offset="1" stop-color="#f7f3e9"/></linearGradient><linearGradient id="navy" x1="0" y1="0" x2="1" y2="1"><stop stop-color="#225f91"/><stop offset=".55" stop-color="#123c61"/><stop offset="1" stop-color="#071c30"/></linearGradient><linearGradient id="gold" x1="0" y1="0" x2="1" y2="1"><stop stop-color="#fff1ad"/><stop offset=".5" stop-color="#e3b84b"/><stop offset="1" stop-color="#9d6b18"/></linearGradient><linearGradient id="red" x1="0" y1="0" x2="1" y2="1"><stop stop-color="#e7736d"/><stop offset=".55" stop-color="#bd4641"/><stop offset="1" stop-color="#7d2925"/></linearGradient><filter id="sh" x="-30%" y="-30%" width="160%" height="180%"><feDropShadow dx="0" dy="24" stdDeviation="24" flood-color="#17394f" flood-opacity=".2"/></filter><filter id="grain"><feTurbulence type="fractalNoise" baseFrequency=".75" numOctaves="2" seed="61"/><feColorMatrix values="1 0 0 0 0 0 1 0 0 0 0 0 1 0 0 0 0 0 .045 0"/></filter></defs><rect width="1200" height="750" rx="54" fill="url(#bg)"/><g filter="url(#sh)" transform="translate(245 80) rotate(-4 350 280)"><rect width="700" height="560" rx="34" fill="#fff" stroke="#d8e3e8" stroke-width="10"/><rect x="75" y="75" width="550" height="26" rx="13" fill="#dfe8ec"/><rect x="75" y="135" width="360" height="20" rx="10" fill="#dfe8ec"/><rect x="90" y="215" width="520" height="230" rx="26" fill="#eef6fb"/><path d="M160 385V335M245 385V285M330 385V315M415 385V257M500 385V300" stroke="#3f81ad" stroke-width="36" stroke-linecap="round"/><circle cx="560" cy="495" r="58" fill="#e9f3e9"/><path d="m532 495 20 21 40-47" fill="none" stroke="#4d8a5c" stroke-width="15" stroke-linecap="round"/></g><rect width="1200" height="750" rx="54" filter="url(#grain)" opacity=".5"/></svg>