<svg xmlns="http://www.w3.org/2000/svg" viewBox="0 0 430 250">
<defs><linearGradient id="sky" x2="0" y2="1"><stop stop-color="#72c7f6"/><stop offset=".7" stop-color="#d9efff"/><stop offset="1" stop-color="#f6e7c6"/></linearGradient><filter id="shadow"><feDropShadow dx="0" dy="4" stdDeviation="5" flood-opacity=".25"/></filter></defs><rect width="430" height="250" fill="url(#sky)"/><path d="M0 188q90-28 200-4t230-5v71H0z" fill="#b8c46d"/>
<g filter="url(#shadow)"><rect x="133" y="117" width="175" height="76" fill="#ad6449"/><path d="M118 118h205l-22-28H141z" fill="#7d4735"/><rect x="202" y="146" width="37" height="47" fill="#224f69"/><rect x="150" y="135" width="23" height="25" fill="#dff4ff"/><rect x="183" y="135" width="23" height="25" fill="#dff4ff"/><rect x="252" y="135" width="23" height="25" fill="#dff4ff"/><rect x="212" y="53" width="16" height="46" fill="#a85c43"/><path d="M210 53l10-29 10 29z" fill="#74392f"/></g>
<g><circle cx="34" cy="90" r="48" fill="#d66f2d"/><circle cx="69" cy="82" r="37" fill="#ee9b31"/><circle cx="397" cy="85" r="46" fill="#c95828"/><circle cx="362" cy="96" r="32" fill="#e6a833"/></g>
<g fill="#d75c25" opacity=".8"><ellipse cx="98" cy="31" rx="7" ry="4" transform="rotate(25 98 31)"/><ellipse cx="333" cy="30" rx="6" ry="3" transform="rotate(-30 333 30)"/><ellipse cx="382" cy="42" rx="7" ry="4" transform="rotate(18 382 42)"/></g></svg>